<svg xmlns="http://www.w3.org/2000/svg" version="1.1" xmlns:xlink="http://www.w3.org/1999/xlink" width="512" height="512" x="0" y="0" viewBox="0 0 24 24" style="enable-background:new 0 0 512 512" xml:space="preserve" class=""><g><path d="M22.03 7.97c.29.29.29.77 0 1.06-.15.15-.34.22-.53.22s-.38-.07-.53-.22L19 7.06l-1.97 1.97c-.15.15-.34.22-.53.22s-.38-.07-.53-.22a.754.754 0 0 1 0-1.06L17.94 6l-1.97-1.97c-.29-.29-.29-.77 0-1.06s.77-.29 1.06 0L19 4.94l1.97-1.97c.29-.29.77-.29 1.06 0s.29.77 0 1.06L20.06 6zM22.75 20c0 1.52-1.23 2.75-2.75 2.75s-2.75-1.23-2.75-2.75c0-.45.12-.87.31-1.25h-7.12c.19.38.31.8.31 1.25 0 1.52-1.23 2.75-2.75 2.75a2.748 2.748 0 0 1-1.05-5.29l-1.53-13c-.06-.51-.44-.94-.94-1.07l-2.66-.66a.75.75 0 1 1 .36-1.46l2.66.67c1.1.27 1.93 1.22 2.07 2.34l.11.99s.08-.02.12-.02h6.42c-.03.25-.06.49-.06.75 0 3.03 2.47 5.5 5.5 5.5 1.25 0 2.4-.43 3.33-1.13l-.37 2.83c-.11.81-.78 1.45-1.6 1.51l-12.12.96.19 1.58H20c1.52 0 2.75 1.23 2.75 2.75zm-13.5 0a1.25 1.25 0 1 0-2.5 0 1.25 1.25 0 0 0 2.5 0zm12 0a1.25 1.25 0 1 0-2.5 0 1.25 1.25 0 0 0 2.5 0z" fill="#e3e3e3" opacity="1" data-original="#000000" class=""></path></g></svg>